<mxfile host="app.diagrams.net" agent="Mozilla/5.0 (X11; Linux x86_64; rv:133.0) Gecko/20100101 Firefox/133.0" version="25.0.3">
  <diagram name="Page-1" id="npQWCvEeuCKCzP5GADGj">
    <mxGraphModel dx="2241" dy="1894" grid="1" gridSize="10" guides="1" tooltips="1" connect="1" arrows="1" fold="1" page="1" pageScale="1" pageWidth="827" pageHeight="1169" math="0" shadow="0">
      <root>
        <mxCell id="0" />
        <mxCell id="1" parent="0" />
        <mxCell id="-q-dW2uEsLLiLJMI-4DN-1" value="" style="whiteSpace=wrap;html=1;aspect=fixed;" parent="1" vertex="1">
          <mxGeometry x="-280" y="-40" width="430" height="430" as="geometry" />
        </mxCell>
        <mxCell id="-q-dW2uEsLLiLJMI-4DN-2" value="" style="endArrow=none;html=1;rounded=0;exitX=1;exitY=0.5;exitDx=0;exitDy=0;entryX=0.003;entryY=0.803;entryDx=0;entryDy=0;entryPerimeter=0;" parent="1" source="-q-dW2uEsLLiLJMI-4DN-1" target="-q-dW2uEsLLiLJMI-4DN-3" edge="1">
          <mxGeometry width="50" height="50" relative="1" as="geometry">
            <mxPoint x="390" y="380" as="sourcePoint" />
            <mxPoint x="390" y="180" as="targetPoint" />
          </mxGeometry>
        </mxCell>
        <mxCell id="-q-dW2uEsLLiLJMI-4DN-3" value="serveur docker distant" style="whiteSpace=wrap;html=1;aspect=fixed;" parent="1" vertex="1">
          <mxGeometry x="580" y="-120" width="370" height="370" as="geometry" />
        </mxCell>
        <mxCell id="-q-dW2uEsLLiLJMI-4DN-4" value="&lt;div&gt;application en flask&lt;/div&gt;&lt;div&gt;(code)&lt;br&gt;&lt;/div&gt;" style="whiteSpace=wrap;html=1;aspect=fixed;" parent="1" vertex="1">
          <mxGeometry x="780" y="100" width="140" height="140" as="geometry" />
        </mxCell>
        <mxCell id="-q-dW2uEsLLiLJMI-4DN-5" value=" IP: &lt;span class=&quot;hljs-number&quot;&gt;172.17&lt;/span&gt;&lt;span class=&quot;hljs-number&quot;&gt;.0&lt;/span&gt;&lt;span class=&quot;hljs-number&quot;&gt;.2&lt;/span&gt;&lt;br&gt;                             Port: &lt;span class=&quot;hljs-number&quot;&gt;5000&lt;/span&gt;" style="text;html=1;align=center;verticalAlign=middle;resizable=0;points=[];autosize=1;strokeColor=none;fillColor=none;" parent="1" vertex="1">
          <mxGeometry x="-120" y="395" width="100" height="40" as="geometry" />
        </mxCell>
        <mxCell id="-q-dW2uEsLLiLJMI-4DN-6" value="" style="endArrow=none;dashed=1;html=1;dashPattern=1 3;strokeWidth=2;rounded=0;" parent="1" edge="1">
          <mxGeometry width="50" height="50" relative="1" as="geometry">
            <mxPoint x="80" y="440" as="sourcePoint" />
            <mxPoint x="80" y="100" as="targetPoint" />
          </mxGeometry>
        </mxCell>
        <mxCell id="-q-dW2uEsLLiLJMI-4DN-7" value="&lt;div&gt;LOCALHOST&lt;/div&gt;&lt;div&gt;acceder via http&lt;br&gt;&lt;/div&gt;" style="text;html=1;align=center;verticalAlign=middle;resizable=0;points=[];autosize=1;strokeColor=none;fillColor=none;" parent="1" vertex="1">
          <mxGeometry x="30" y="460" width="110" height="40" as="geometry" />
        </mxCell>
        <mxCell id="-q-dW2uEsLLiLJMI-4DN-8" value="" style="shape=umlActor;verticalLabelPosition=bottom;verticalAlign=top;html=1;outlineConnect=0;" parent="1" vertex="1">
          <mxGeometry x="-150" y="-90" width="30" height="60" as="geometry" />
        </mxCell>
        <mxCell id="-q-dW2uEsLLiLJMI-4DN-13" value="" style="swimlane;startSize=0;" parent="1" vertex="1">
          <mxGeometry x="-260" y="190" width="380" height="190" as="geometry" />
        </mxCell>
        <mxCell id="-q-dW2uEsLLiLJMI-4DN-14" value="VMBRO" style="text;html=1;align=center;verticalAlign=middle;resizable=0;points=[];autosize=1;strokeColor=none;fillColor=none;" parent="1" vertex="1">
          <mxGeometry x="120" y="340" width="70" height="30" as="geometry" />
        </mxCell>
        <mxCell id="-q-dW2uEsLLiLJMI-4DN-15" value="" style="curved=1;endArrow=classic;html=1;rounded=0;" parent="1" target="-q-dW2uEsLLiLJMI-4DN-14" edge="1">
          <mxGeometry width="50" height="50" relative="1" as="geometry">
            <mxPoint x="230" y="180" as="sourcePoint" />
            <mxPoint x="440" y="110" as="targetPoint" />
            <Array as="points">
              <mxPoint x="190" y="210" />
              <mxPoint x="180" y="240" />
            </Array>
          </mxGeometry>
        </mxCell>
        <mxCell id="-q-dW2uEsLLiLJMI-4DN-16" value="" style="curved=1;endArrow=classic;html=1;rounded=0;" parent="1" edge="1">
          <mxGeometry width="50" height="50" relative="1" as="geometry">
            <mxPoint x="-110" y="-60" as="sourcePoint" />
            <mxPoint x="170" y="210" as="targetPoint" />
            <Array as="points">
              <mxPoint x="200" y="-20" />
              <mxPoint x="320" y="70" />
            </Array>
          </mxGeometry>
        </mxCell>
        <mxCell id="-q-dW2uEsLLiLJMI-4DN-17" value="Lo" style="text;html=1;align=center;verticalAlign=middle;resizable=0;points=[];autosize=1;strokeColor=none;fillColor=none;" parent="1" vertex="1">
          <mxGeometry x="130" y="200" width="40" height="30" as="geometry" />
        </mxCell>
        <mxCell id="-q-dW2uEsLLiLJMI-4DN-18" value="" style="shape=tape;whiteSpace=wrap;html=1;" parent="1" vertex="1">
          <mxGeometry x="-90" y="340" width="210" height="30" as="geometry" />
        </mxCell>
        <mxCell id="-q-dW2uEsLLiLJMI-4DN-19" value="NAT" style="text;html=1;align=center;verticalAlign=middle;resizable=0;points=[];autosize=1;strokeColor=none;fillColor=none;" parent="1" vertex="1">
          <mxGeometry x="-10" y="325" width="50" height="30" as="geometry" />
        </mxCell>
        <mxCell id="-q-dW2uEsLLiLJMI-4DN-20" value="&lt;div&gt;application en flask&lt;/div&gt;&lt;div&gt;(code)&lt;br&gt;&lt;/div&gt;" style="whiteSpace=wrap;html=1;aspect=fixed;" parent="1" vertex="1">
          <mxGeometry x="-230" y="230" width="140" height="140" as="geometry" />
        </mxCell>
        <mxCell id="-q-dW2uEsLLiLJMI-4DN-21" value="PC" style="text;html=1;align=center;verticalAlign=middle;resizable=0;points=[];autosize=1;strokeColor=none;fillColor=none;" parent="1" vertex="1">
          <mxGeometry x="-155" y="-30" width="40" height="30" as="geometry" />
        </mxCell>
        <mxCell id="-q-dW2uEsLLiLJMI-4DN-22" value="192.168.122.1/24" style="text;html=1;align=center;verticalAlign=middle;resizable=0;points=[];autosize=1;strokeColor=none;fillColor=none;" parent="1" vertex="1">
          <mxGeometry x="450" y="190" width="120" height="30" as="geometry" />
        </mxCell>
        <mxCell id="-q-dW2uEsLLiLJMI-4DN-23" value="127.0.0.1/8" style="text;html=1;align=center;verticalAlign=middle;resizable=0;points=[];autosize=1;strokeColor=none;fillColor=none;" parent="1" vertex="1">
          <mxGeometry x="100" y="220" width="80" height="30" as="geometry" />
        </mxCell>
      </root>
    </mxGraphModel>
  </diagram>
</mxfile>
